<svg viewBox="0 0 4000 2392.6334" xmlns="http://www.w3.org/2000/svg" id="Logo">
  <defs>
    <style>
      .cls-1 {
        fill: #1f211c;
      }
    </style>
  </defs>
  <g id="MNTD_LOGO_DIGITAL_RICHBLACK">
    <path d="M1895.2068,1800.3735V338.5488h285.5461v1461.8247h363.5764V338.5488h285.4759v1461.8247h416.2289c488.9854,0,574.256-356.0544,574.256-917.7267C3820.29,195.6336,3624.7234,0,3213.4862,0h-1629.203v814.95h-4.991L1298.4558,0h-506.0681l-178.0623,927.7795h-4.991L451.3768,0H0v1800.3735h305.9323V702.1247h4.9913l200.6276,1098.2489h208.079l193.1057-1098.2489h4.9913v1098.2489h340.589v-947.8123h4.991l341.0106,947.8123h290.889ZM3208.4249,346.0702h37.6091c112.8264,0,193.1054,65.1654,193.1054,536.5766,0,403.7143-37.6086,571.7251-170.5401,571.7251h-60.1744V346.0702Z" class="cls-1"></path>
    <rect height="340.5869" width="340.589" y="2052.0466" x="917.6921" class="cls-1"></rect>
    <path d="M3791.6513,109.8121c0-14.274,2.7167-27.7217,8.1954-40.3318,5.4787-12.61,12.927-23.6467,22.3902-33.1099,9.4632-9.4632,20.4885-16.9228,33.0985-22.3902,12.61-5.4674,26.0577-8.2067,40.3431-8.2067,14.4665,0,28.0047,2.7393,40.6148,8.2067,12.61,5.4674,23.658,12.927,33.1212,22.3902,9.4406,9.4632,16.9115,20.4998,22.3902,33.1099,5.4561,12.61,8.1954,26.0577,8.1954,40.3318,0,14.2853-2.7393,27.733-8.1954,40.3431-5.4787,12.61-12.9496,23.6467-22.3902,33.0985-9.4632,9.4632-20.5111,16.9228-33.1212,22.4015-12.61,5.4674-26.1483,8.2067-40.6148,8.2067-14.2853,0-27.733-2.7393-40.3431-8.2067-12.61-5.4787-23.6353-12.9383-33.0985-22.4015-9.4632-9.4519-16.9115-20.4885-22.3902-33.0985-5.4787-12.61-8.1954-26.0577-8.1954-40.3431ZM3814.7206,109.8121c0,11.1272,2.1507,21.6091,6.4069,31.4346,4.2562,9.8367,10.0518,18.3604,17.3869,25.5936,7.3351,7.2332,15.8927,12.9836,25.7408,17.2511,9.8254,4.2675,20.3074,6.3956,31.4232,6.3956,11.1385,0,21.6657-2.1281,31.5817-6.3956,9.916-4.2675,18.5415-10.0179,25.8766-17.2511,7.3125-7.2332,13.1081-15.7569,17.3869-25.5936,4.2562-9.8254,6.3843-20.3074,6.3843-31.4346s-2.1281-21.5978-6.3843-31.4346c-4.2788-9.8254-10.0745-18.3604-17.3869-25.5936-7.3351-7.2332-15.9606-12.9836-25.8766-17.2511-9.916-4.2562-20.4432-6.3956-31.5817-6.3956-11.1159,0-21.5978,2.1394-31.4232,6.3956-9.8481,4.2675-18.4057,10.0179-25.7408,17.2511-7.3351,7.2332-13.1307,15.7682-17.3869,25.5936-4.2562,9.8367-6.4069,20.3074-6.4069,31.4346ZM3858.12,51.6746h45.3464c5.3881,0,10.2556.8829,14.6023,2.6375,4.3694,1.7659,8.0822,4.2222,11.1385,7.3691,3.0563,3.1582,5.4561,6.871,7.2219,11.1272,1.7659,4.2788,2.6488,8.9991,2.6488,14.1948,0,7.7879-1.947,14.5117-5.8409,20.1715-3.8939,5.6598-9.0783,9.7801-15.5758,12.3723l23.092,47.848h-23.9297l-21.9827-45.3464h-14.4665v45.3464h-22.2544V51.6746ZM3902.923,100.9149c5.1844,0,8.8067-1.3018,10.8442-3.8939,2.0375-2.6035,3.0563-5.9428,3.0563-10.0179s-1.0188-7.4596-3.0563-10.1537c-2.0375-2.6827-5.6598-4.0411-10.8442-4.0411h-22.5487v28.1066h22.5487Z" class="cls-1"></path>
  </g>
</svg>